<svg xmlns="http://www.w3.org/2000/svg" viewBox="0 0 23 23"><path d="M1 1h7v7h-7zM11 1h2v1h-1v2h-1zM15 1h7v7h-7zM2 2v5h5v-5zM9 2h1v2h1v2h-1v-1h-1zM13 2h1v1h-1zM16 2v5h5v-5zM3 3h3v3h-3zM17 3h3v3h-3zM12 4h2v5h2v2h-1v-1h-1v1h-1v-2h-2v1h1v1h1v1h-1v1h-2v-1h1v-1h-2v-4h1v1h1v-2h1v2h1v-2h-1zM1 9h1v3h-1zM7 9h1v1h-1zM18 9h3v1h-1v3h2v1h-3v1h-1v-2h1v-3h-1zM3 10h3v1h-1v1h-1v-1h-1zM17 10h1v3h-1zM21 10h1v1h-1zM6 11h3v1h-2v1h2v1h-3v-1h-1v-1h1zM14 11h1v1h-1zM2 12h1v1h-1zM3 13h1v1h-1zM15 13h1v1h1v2h2v1h-2v1h-1v-2h-1v-1h-1v1h1v1h-1v2h-1v-2h-1v1h-1v-1h-1v-1h1v-1h1v1h1v-1h-1v-1h3zM9 14h2v1h-2zM1 15h7v7h-7zM2 16v5h5v-5zM3 17h3v3h-3zM19 17h1v2h2v1h-2v1h1v1h-4v-2h1v1h1zM10 18h1v2h1v1h-2zM15 19h1v1h-1zM9 21h1v1h-1zM12 21h1v1h-1zM14 21h1v1h-1z"/></svg>